M48
;DRILL file {KiCad 4.0.2-stable} date 09/05/2016 17:31:01
;FORMAT={-:-/ absolute / metric / decimal}
FMAT,2
METRIC,TZ
T1C0.400
T2C0.500
T3C0.550
T4C0.600
T5C0.700
T6C0.762
T7C1.016
T8C1.300
T9C3.048
%
G90
G05
M71
T1
X146.368Y-103.06
X147.066Y-136.144
X148.336Y-145.669
X149.034Y-143.129
X149.479Y-103.378
X150.622Y-144.526
X152.082Y-146.05
X152.4Y-138.811
X152.4Y-140.056
X152.844Y-119.126
X153.035Y-111.76
X153.035Y-151.892
X153.987Y-133.731
X154.749Y-137.541
X155.385Y-93.535
X155.385Y-116.141
X155.385Y-124.079
X155.448Y-115.252
X155.511Y-102.616
X156.718Y-133.909
X156.781Y-120.904
X156.845Y-150.558
X156.909Y-124.015
X157.29Y-120.206
X157.416Y-104.394
X157.543Y-139.827
X157.734Y-132.461
X158.369Y-111.95
X158.369Y-115.951
X158.623Y-134.747
X158.814Y-128.207
X158.877Y-129.603
X159.639Y-134.302
X159.766Y-104.394
X159.829Y-103.378
X159.957Y-120.904
X160.274Y-125.603
X160.528Y-126.809
X160.719Y-102.679
X161.036Y-120.142
X161.226Y-111.95
X161.29Y-111.061
X161.544Y-91.885
X161.607Y-107.188
X161.734Y-123.19
X161.925Y-99.631
X162.115Y-141.478
X162.369Y-106.362
X162.75Y-102.552
X162.877Y-136.525
X162.941Y-142.367
X163.068Y-135.7
X163.258Y-152.209
X163.322Y-113.538
X163.322Y-116.713
X163.512Y-102.997
X163.512Y-120.078
X163.766Y-120.968
X163.83Y-124.206
X164.147Y-142.367
X164.147Y-145.923
X164.211Y-112.776
X164.211Y-115.824
X164.338Y-101.536
X164.338Y-104.712
X164.528Y-147.383
X164.782Y-130.365
X164.782Y-143.637
X164.846Y-124.142
X165.608Y-143.637
X165.925Y-121.539
X166.306Y-147.447
X166.56Y-108.204
X166.624Y-138.62
X166.814Y-104.775
X166.941Y-106.045
X167.132Y-115.951
X167.386Y-125.285
X167.45Y-126.301
X167.576Y-138.049
X167.957Y-120.078
X168.084Y-117.284
X168.338Y-116.078
X169.355Y-97.218
X169.672Y-148.018
X169.862Y-151.066
X169.926Y-112.204
X170.053Y-136.017
X170.117Y-141.986
X170.307Y-116.078
X170.37Y-115.189
X170.498Y-108.648
X170.688Y-148.78
X170.751Y-152.337
X171.767Y-121.349
X171.767Y-147.383
X172.085Y-152.337
X172.529Y-108.712
X172.529Y-123.444
X173.228Y-124.841
X173.291Y-109.093
X173.736Y-102.679
X173.927Y-143.065
X174.117Y-113.284
X175.07Y-109.093
X177.038Y-140.335
X177.101Y-146.685
X177.355Y-112.84
X177.609Y-129.921
X177.673Y-147.637
X177.8Y-150.304
X177.863Y-112.014
X177.863Y-139.573
X178.562Y-147.574
X179.006Y-111.379
X179.07Y-100.584
X179.324Y-131.064
X179.387Y-127.762
X179.705Y-128.651
X179.895Y-97.472
X179.895Y-147.193
X180.467Y-146.494
X182.308Y-107.251
X182.689Y-141.16
X183.959Y-130.429
X183.959Y-131.445
X183.959Y-132.461
X183.959Y-133.477
X183.959Y-134.493
X183.959Y-135.509
X183.959Y-136.525
X184.912Y-145.225
X188.15Y-109.601
T4
X159.004Y-141.287
X165.638Y-123.063
X166.878Y-123.063
T5
X186.773Y-114.768
X186.773Y-116.768
X186.773Y-118.768
X189.224Y-118.768
X189.273Y-114.768
X189.273Y-116.768
T6
X150.785Y-91.344
X150.785Y-98.094
X155.535Y-98.044
X155.585Y-91.344
X155.585Y-95.094
T7
X151.028Y-153.924
X152.654Y-124.841
X152.654Y-127.381
X152.654Y-129.921
X182.372Y-116.23
X182.562Y-111.887
X188.163Y-141.173
X188.163Y-143.713
T8
X153.035Y-98.044
X153.085Y-92.044
X188.023Y-112.268
X188.023Y-120.868
T9
X146.812Y-92.456
X146.812Y-124.46
X146.812Y-155.956
X187.96Y-92.456
X187.96Y-124.46
X187.96Y-155.956
T2
X159.315Y-92.137G85X159.315Y-92.787
G05
X166.315Y-92.137G85X166.315Y-92.787
G05
T3
X160.465Y-95.162G85X160.165Y-95.162
G05
X165.465Y-95.162G85X165.165Y-95.162
G05
T0
M30
