G04 #@! TF.FileFunction,Soldermask,Top*
%FSLAX46Y46*%
G04 Gerber Fmt 4.6, Leading zero omitted, Abs format (unit mm)*
G04 Created by KiCad (PCBNEW 4.0.2-stable) date 09/05/2016 17:30:52*
%MOMM*%
G01*
G04 APERTURE LIST*
%ADD10C,0.200000*%
%ADD11C,1.924000*%
%ADD12R,1.400000X2.400000*%
%ADD13R,1.400000X1.400000*%
%ADD14O,1.400000X1.400000*%
%ADD15R,0.900000X1.000000*%
%ADD16R,0.650000X1.400000*%
%ADD17R,1.400000X0.650000*%
%ADD18C,4.464000*%
%ADD19R,1.000000X0.900000*%
%ADD20R,1.650000X1.900000*%
%ADD21R,1.600000X1.150000*%
%ADD22R,1.900000X1.650000*%
%ADD23R,1.150000X1.600000*%
%ADD24R,0.800000X1.750000*%
%ADD25O,1.650000X1.350000*%
%ADD26O,1.400000X1.950000*%
%ADD27R,1.200000X1.200000*%
%ADD28R,2.432000X2.432000*%
%ADD29O,2.432000X2.432000*%
%ADD30R,1.300000X1.600000*%
%ADD31R,1.600000X1.300000*%
%ADD32R,1.700000X0.650000*%
%ADD33R,0.650000X1.700000*%
%ADD34R,1.050000X1.460000*%
%ADD35R,1.290000X0.705000*%
%ADD36R,1.240000X1.340000*%
%ADD37R,2.432000X4.057600*%
%ADD38R,2.432000X1.416000*%
%ADD39R,2.500580X6.000700*%
%ADD40R,2.300000X1.700000*%
%ADD41R,1.250000X0.680000*%
%ADD42R,0.990000X0.420000*%
%ADD43R,2.100000X4.400000*%
%ADD44R,2.100000X2.400000*%
%ADD45C,1.500000*%
%ADD46R,1.900000X1.900000*%
%ADD47R,2.432000X2.127200*%
%ADD48O,2.432000X2.127200*%
%ADD49R,2.635200X2.635200*%
G04 APERTURE END LIST*
D10*
D11*
X153085000Y-92044000D03*
X155585000Y-91344000D03*
X155585000Y-95094000D03*
X150785000Y-98094000D03*
X155535000Y-98044000D03*
X150785000Y-91344000D03*
X153035000Y-98044000D03*
D12*
X170907000Y-144462500D03*
X169707000Y-144462500D03*
D13*
X166878000Y-123063000D03*
D14*
X165638000Y-123063000D03*
D15*
X150622000Y-146727000D03*
X150622000Y-145627000D03*
D16*
X163128000Y-140447000D03*
X163628000Y-140447000D03*
X164128000Y-140447000D03*
X164628000Y-140447000D03*
X165128000Y-140447000D03*
X165628000Y-140447000D03*
X166128000Y-140447000D03*
X166628000Y-140447000D03*
X167128000Y-140447000D03*
X167628000Y-140447000D03*
X168128000Y-140447000D03*
X168628000Y-140447000D03*
X169128000Y-140447000D03*
X169628000Y-140447000D03*
X170128000Y-140447000D03*
X170628000Y-140447000D03*
D17*
X172578000Y-138497000D03*
X172578000Y-137997000D03*
X172578000Y-137497000D03*
X172578000Y-136997000D03*
X172578000Y-136497000D03*
X172578000Y-135997000D03*
X172578000Y-135497000D03*
X172578000Y-134997000D03*
X172578000Y-134497000D03*
X172578000Y-133997000D03*
X172578000Y-133497000D03*
X172578000Y-132997000D03*
X172578000Y-132497000D03*
X172578000Y-131997000D03*
X172578000Y-131497000D03*
X172578000Y-130997000D03*
D16*
X170628000Y-129047000D03*
X170128000Y-129047000D03*
X169628000Y-129047000D03*
X169128000Y-129047000D03*
X168628000Y-129047000D03*
X168128000Y-129047000D03*
X167628000Y-129047000D03*
X167128000Y-129047000D03*
X166628000Y-129047000D03*
X166128000Y-129047000D03*
X165628000Y-129047000D03*
X165128000Y-129047000D03*
X164628000Y-129047000D03*
X164128000Y-129047000D03*
X163628000Y-129047000D03*
X163128000Y-129047000D03*
D17*
X161178000Y-130997000D03*
X161178000Y-131497000D03*
X161178000Y-131997000D03*
X161178000Y-132497000D03*
X161178000Y-132997000D03*
X161178000Y-133497000D03*
X161178000Y-133997000D03*
X161178000Y-134497000D03*
X161178000Y-134997000D03*
X161178000Y-135497000D03*
X161178000Y-135997000D03*
X161178000Y-136497000D03*
X161178000Y-136997000D03*
X161178000Y-137497000D03*
X161178000Y-137997000D03*
X161178000Y-138497000D03*
D18*
X187960000Y-124460000D03*
X187960000Y-92456000D03*
X187960000Y-155956000D03*
X146812000Y-155956000D03*
X146812000Y-124460000D03*
D15*
X174752000Y-139505600D03*
X174752000Y-140605600D03*
X150622000Y-149902000D03*
X150622000Y-148802000D03*
X151663400Y-132383440D03*
X151663400Y-133483440D03*
D19*
X151644440Y-134777480D03*
X150544440Y-134777480D03*
X169630000Y-146812000D03*
X170730000Y-146812000D03*
D20*
X151193500Y-110152500D03*
X151193500Y-107652500D03*
X151130000Y-118915500D03*
X151130000Y-116415500D03*
D21*
X160906500Y-105854500D03*
X159006500Y-105854500D03*
D20*
X184721500Y-107803000D03*
X184721500Y-105303000D03*
D22*
X189019500Y-98552000D03*
X186519500Y-98552000D03*
D23*
X153416000Y-146047500D03*
X153416000Y-144147500D03*
D22*
X182796500Y-139128500D03*
X180296500Y-139128500D03*
D19*
X177948500Y-154686000D03*
X179048500Y-154686000D03*
D15*
X181559200Y-149698800D03*
X181559200Y-148598800D03*
D23*
X184810400Y-141137600D03*
X184810400Y-143037600D03*
D15*
X183438800Y-149698800D03*
X183438800Y-148598800D03*
X185674000Y-149698800D03*
X185674000Y-148598800D03*
D19*
X166285000Y-150812500D03*
X165185000Y-150812500D03*
D20*
X182689500Y-92095000D03*
X182689500Y-94595000D03*
D19*
X169142500Y-108204000D03*
X168042500Y-108204000D03*
X161400400Y-124561600D03*
X162500400Y-124561600D03*
X161438500Y-121412000D03*
X162538500Y-121412000D03*
D15*
X159639000Y-138853000D03*
X159639000Y-137753000D03*
X154178000Y-113707000D03*
X154178000Y-112607000D03*
D19*
X172698500Y-141922500D03*
X171598500Y-141922500D03*
X160062000Y-107251500D03*
X158962000Y-107251500D03*
D15*
X174244000Y-130598000D03*
X174244000Y-129498000D03*
D19*
X163110000Y-127381000D03*
X162010000Y-127381000D03*
D15*
X180467000Y-94192000D03*
X180467000Y-95292000D03*
X154178000Y-115020000D03*
X154178000Y-116120000D03*
D24*
X164114900Y-95161540D03*
X163464900Y-95161540D03*
X162814900Y-95161540D03*
X162164900Y-95161540D03*
X161514900Y-95161540D03*
D25*
X165314900Y-95161540D03*
X160314900Y-95161540D03*
D26*
X166314900Y-92461540D03*
X159314900Y-92461540D03*
D27*
X159004000Y-141287500D03*
D28*
X188163200Y-143713200D03*
D29*
X188163200Y-141173200D03*
D30*
X153797000Y-141117500D03*
X153797000Y-138917500D03*
X151003000Y-114384000D03*
X151003000Y-112184000D03*
X168084500Y-111971000D03*
X168084500Y-109771000D03*
X153098500Y-148125000D03*
X153098500Y-150325000D03*
X155384500Y-149776000D03*
X155384500Y-151976000D03*
D31*
X175747500Y-153162000D03*
X177947500Y-153162000D03*
D30*
X167957500Y-150919000D03*
X167957500Y-153119000D03*
D31*
X163456800Y-144526000D03*
X161256800Y-144526000D03*
D30*
X155130500Y-146832500D03*
X155130500Y-144632500D03*
D31*
X157015000Y-144526000D03*
X159215000Y-144526000D03*
X185656400Y-151638000D03*
X183456400Y-151638000D03*
X185504000Y-146659600D03*
X183304000Y-146659600D03*
D32*
X156940000Y-111169000D03*
X156940000Y-111669000D03*
X156940000Y-112169000D03*
X156940000Y-112669000D03*
X156940000Y-113169000D03*
X156940000Y-113669000D03*
X156940000Y-114169000D03*
X156940000Y-114669000D03*
X156940000Y-115169000D03*
X156940000Y-115669000D03*
X156940000Y-116169000D03*
X156940000Y-116669000D03*
D33*
X158540000Y-118269000D03*
X159040000Y-118269000D03*
X159540000Y-118269000D03*
X160040000Y-118269000D03*
X160540000Y-118269000D03*
X161040000Y-118269000D03*
X161540000Y-118269000D03*
X162040000Y-118269000D03*
X162540000Y-118269000D03*
X163040000Y-118269000D03*
X163540000Y-118269000D03*
X164040000Y-118269000D03*
D32*
X165640000Y-116669000D03*
X165640000Y-116169000D03*
X165640000Y-115669000D03*
X165640000Y-115169000D03*
X165640000Y-114669000D03*
X165640000Y-114169000D03*
X165640000Y-113669000D03*
X165640000Y-113169000D03*
X165640000Y-112669000D03*
X165640000Y-112169000D03*
X165640000Y-111669000D03*
X165640000Y-111169000D03*
D33*
X164040000Y-109569000D03*
X163540000Y-109569000D03*
X163040000Y-109569000D03*
X162540000Y-109569000D03*
X162040000Y-109569000D03*
X161540000Y-109569000D03*
X161040000Y-109569000D03*
X160540000Y-109569000D03*
X160040000Y-109569000D03*
X159540000Y-109569000D03*
X159040000Y-109569000D03*
X158540000Y-109569000D03*
D34*
X186883000Y-107716500D03*
X187833000Y-107716500D03*
X188783000Y-107716500D03*
X188783000Y-105516500D03*
X186883000Y-105516500D03*
D35*
X157851500Y-147590000D03*
X157851500Y-148090000D03*
X157851500Y-148590000D03*
X157851500Y-149090000D03*
X157851500Y-149590000D03*
X162061500Y-149590000D03*
X162061500Y-149090000D03*
X162061500Y-148590000D03*
X162061500Y-148090000D03*
X162061500Y-147590000D03*
D36*
X160376500Y-149060000D03*
X160376500Y-148120000D03*
X159536500Y-149060000D03*
X159536500Y-148120000D03*
D37*
X171196000Y-93408500D03*
D38*
X177800000Y-93408500D03*
X177800000Y-91122500D03*
X177800000Y-95694500D03*
D39*
X147510500Y-108117640D03*
X147510500Y-117815360D03*
X146875500Y-149882860D03*
X146875500Y-140185140D03*
D40*
X148602500Y-134562500D03*
X145402500Y-134562500D03*
X145402500Y-129062500D03*
X148602500Y-129062500D03*
D41*
X172515000Y-148514000D03*
X175465000Y-148514000D03*
D42*
X175465000Y-151014000D03*
D41*
X175465000Y-150514000D03*
X175465000Y-150014000D03*
X175465000Y-149514000D03*
X175465000Y-149014000D03*
X172515000Y-149514000D03*
X172515000Y-149014000D03*
X172515000Y-150014000D03*
X172515000Y-150514000D03*
X172515000Y-151014000D03*
D43*
X173990000Y-149764000D03*
D18*
X146812000Y-92456000D03*
D10*
G36*
X190262082Y-101008000D02*
X189060000Y-102210082D01*
X187857918Y-101008000D01*
X189060000Y-99805918D01*
X190262082Y-101008000D01*
X190262082Y-101008000D01*
G37*
G36*
X188062082Y-103158000D02*
X186860000Y-104360082D01*
X185657918Y-103158000D01*
X186860000Y-101955918D01*
X188062082Y-103158000D01*
X188062082Y-103158000D01*
G37*
D44*
X188264800Y-151148800D03*
X188264800Y-147148800D03*
D45*
X189223500Y-118768000D03*
X186773500Y-118768000D03*
X189273500Y-114768000D03*
X186773500Y-114768000D03*
X189273500Y-116768000D03*
D46*
X188023500Y-120868000D03*
X188023500Y-112268000D03*
D45*
X186773500Y-116768000D03*
D47*
X152654000Y-129921000D03*
D48*
X152654000Y-127381000D03*
X152654000Y-124841000D03*
D49*
X182562500Y-111887000D03*
X151028400Y-153924000D03*
X182372000Y-116230400D03*
M02*
